<svg width="500" height="500" viewBox="0 0 500 500" fill="none" xmlns="http://www.w3.org/2000/svg">
<g clip-path="url(#clip0_20382_871)">
<path d="M250 310C283.137 310 310 283.137 310 250C310 216.863 283.137 190 250 190C216.863 190 190 216.863 190 250C190 283.137 216.863 310 250 310Z" fill="#231F20"/>
<path d="M344.656 604.968V250C344.656 197.72 302.273 155.344 250 155.344C197.727 155.344 155.344 197.727 155.344 250V604.968" stroke="#231F20" stroke-width="26.7144" stroke-miterlimit="10"/>
<path d="M391.987 604.968V250C391.987 171.587 328.42 108.013 250 108.013C171.58 108.013 108.013 171.58 108.013 250V604.968" stroke="#231F20" stroke-width="26.7144" stroke-miterlimit="10"/>
<path d="M439.318 604.968V250C439.318 145.447 354.56 60.6885 250.007 60.6885C145.453 60.6885 60.6884 145.447 60.6884 250V604.968" stroke="#231F20" stroke-width="26.7144" stroke-miterlimit="10"/>
<path d="M486.643 604.968V250C486.643 119.306 380.694 13.3572 250 13.3572C119.306 13.3572 13.3572 119.306 13.3572 250V604.968" stroke="#231F20" stroke-width="26.7144" stroke-miterlimit="10"/>
</g>
<defs>
<clipPath id="clip0_20382_871">
<rect width="500" height="500" fill="white"/>
</clipPath>
</defs>
</svg>
